<?xml version="1.0" encoding="utf-8"?>
  <svg width="100%" height="100%" viewBox="0 0 64 64" xmlns="http://www.w3.org/2000/svg">
   <g>
    <path class="dedo" d="M15.681,26.563c1.463-1.463,3.167-2.39,5.065-3.192c0.424-0.179,0.854-0.338,1.288-0.479V9.334
     c0-2.782-2.255-5.037-5.037-5.037c-2.781,0-5.036,2.256-5.036,5.037v22.571c0.095-0.262,0.196-0.466,0.305-0.723
     C13.069,29.284,14.218,28.026,15.681,26.563z"/>

    <path class="dedo" d="M22.048,38.982c0-0.053,0.002-0.106,0.003-0.159c0.041-1.716,0.919-2.852,1.448-3.381c0.542-0.542,1.718-1.452,3.505-1.452
     v-0.031c0.139,0.012,0.28,0.018,0.423,0.018h9.515c3.228,0,5.037-2.255,5.037-5.037c0-1.256-0.693-4.142-4.172-5.021
     c-0.237-0.011-0.475-0.017-0.715-0.017c-0.049,0-0.098,0.001-0.147,0.002c-0.001,0-0.001,0-0.002,0h-9.515
     c-0.143,0-0.283,0.006-0.423,0.018v-0.018c-2.997,0-5.789,0.877-8.134,2.387c-4.187,2.671-6.965,7.357-6.965,12.691
     c0,0.449,0.021,0.892,0.059,1.331c0.009,0.304,0.044,0.601,0.104,0.889c1.073,7.256,7.326,12.824,14.88,12.824
     c1.78,0,3.487-0.31,5.071-0.877C26.207,51.068,22.048,45.511,22.048,38.982z"/>

    <path class="dedo" d="M52.079,37.656V9.334c0-2.782-2.255-5.038-5.036-5.038c-2.782,0-5.037,2.256-5.037,5.038v15.39
     c-1.325-0.458-2.734-0.735-4.198-0.804c1.194,0.302,1.99,0.777,2.524,1.324c0.027,0.016,0.051,0.034,0.073,0.055
     c1.6,1.023,3.056,3.045,3.056,4.699c0,3.26-2.911,5.433-5.037,5.433l-11.267,0.013c-1.684,0-3.783,0.749-4.056,3.484
     c-0.533,5.34,3.365,11.53,8.389,13.973l-0.022-0.002c1.738,0.701,3.634,1.09,5.623,1.09c8.308,0,14.988-6.735,14.988-15.043
     C52.079,38.511,52.115,38.081,52.079,37.656z"/>
   </g>

  </svg>
